# xmcd
#
# Track frame offsets: 
#        150
#        21832
#        41218
#        66650
#        90647
#        118622
#        143128
#        166513
#        188687
#        212384
#
# Disc length: 3099 seconds
#
# Revision: 0
# Processed by: cddbd v1.5.2PL0 Copyright (c) Steve Scherf et al.
# Submitted via: ExactAudioCopy v1.0b3
#
DISCID=850c190a
DTITLE=Mong Thi, Le Minh - Gai Nha Ngheo
DYEAR=1998
DGENRE=
TTITLE0=Mong Thi - Yeu lam
TTITLE1=Le Minh - Doan cuoi tinh yeu
TTITLE2=Mong Thi - Dung trach em toi nghiep
TTITLE3=Le Minh - Tinh phu
TTITLE4=Mong Thi - Gai nha ngheo
TTITLE5=Tren duong que
TTITLE6=Le Minh - Nguoi khong co don
TTITLE7=Mong Thi - Yeu dan toc Viet Nam
TTITLE8=Le Minh - Troi mua
TTITLE9=Mong Thi - Co Tham di chua
EXTD=
EXTT0=
EXTT1=
EXTT2=
EXTT3=
EXTT4=
EXTT5=
EXTT6=
EXTT7=
EXTT8=
EXTT9=
PLAYORDER=
